<mxfile host="app.diagrams.net" modified="2024-06-15T02:53:51.157Z" agent="Mozilla/5.0 (X11; Linux x86_64) AppleWebKit/537.36 (KHTML, like Gecko) Chrome/125.0.0.0 Safari/537.36" etag="r4RD4tFeCevikX6FkMsX" version="24.5.4" type="github">
  <diagram id="C5RBs43oDa-KdzZeNtuy" name="Page-1">
    <mxGraphModel dx="1366" dy="-451" grid="1" gridSize="10" guides="1" tooltips="1" connect="1" arrows="1" fold="1" page="1" pageScale="1" pageWidth="827" pageHeight="1169" math="0" shadow="0">
      <root>
        <mxCell id="WIyWlLk6GJQsqaUBKTNV-0" />
        <mxCell id="WIyWlLk6GJQsqaUBKTNV-1" parent="WIyWlLk6GJQsqaUBKTNV-0" />
        <mxCell id="1yXC9ZcpIv-UJ7n63gi2-5" value="RPC远程过程调用，框架分三层，分别是使用方接口、序列化反序列化、网络收发" style="text;html=1;align=center;verticalAlign=middle;resizable=0;points=[];autosize=1;strokeColor=none;fillColor=none;" vertex="1" parent="WIyWlLk6GJQsqaUBKTNV-1">
          <mxGeometry x="100" y="1200" width="460" height="30" as="geometry" />
        </mxCell>
        <mxCell id="1yXC9ZcpIv-UJ7n63gi2-17" style="edgeStyle=orthogonalEdgeStyle;rounded=0;orthogonalLoop=1;jettySize=auto;html=1;entryX=0.5;entryY=0;entryDx=0;entryDy=0;fillColor=#fff2cc;strokeColor=#d6b656;" edge="1" parent="WIyWlLk6GJQsqaUBKTNV-1" source="1yXC9ZcpIv-UJ7n63gi2-12" target="1yXC9ZcpIv-UJ7n63gi2-16">
          <mxGeometry relative="1" as="geometry" />
        </mxCell>
        <mxCell id="1yXC9ZcpIv-UJ7n63gi2-12" value="序列化层：将用户的request按照一定的协议序列化为字符流" style="rounded=1;whiteSpace=wrap;html=1;strokeWidth=2;fillWeight=4;hachureGap=8;hachureAngle=45;fillColor=#d5e8d4;sketch=1;opacity=80;strokeColor=#82b366;" vertex="1" parent="WIyWlLk6GJQsqaUBKTNV-1">
          <mxGeometry x="50" y="1430" width="180" height="80" as="geometry" />
        </mxCell>
        <mxCell id="1yXC9ZcpIv-UJ7n63gi2-15" style="edgeStyle=orthogonalEdgeStyle;rounded=0;orthogonalLoop=1;jettySize=auto;html=1;entryX=0.5;entryY=0;entryDx=0;entryDy=0;fillColor=#ffe6cc;strokeColor=#d79b00;" edge="1" parent="WIyWlLk6GJQsqaUBKTNV-1" source="1yXC9ZcpIv-UJ7n63gi2-6" target="1yXC9ZcpIv-UJ7n63gi2-12">
          <mxGeometry relative="1" as="geometry" />
        </mxCell>
        <mxCell id="1yXC9ZcpIv-UJ7n63gi2-6" value="发起rpc调用方，&lt;div&gt;初始化好 request和response,&lt;/div&gt;&lt;div&gt;使用框架预留的rpc调用接口&lt;/div&gt;" style="shape=umlActor;verticalLabelPosition=bottom;verticalAlign=top;html=1;" vertex="1" parent="WIyWlLk6GJQsqaUBKTNV-1">
          <mxGeometry x="125" y="1270" width="30" height="60" as="geometry" />
        </mxCell>
        <mxCell id="1yXC9ZcpIv-UJ7n63gi2-19" style="edgeStyle=orthogonalEdgeStyle;rounded=0;orthogonalLoop=1;jettySize=auto;html=1;entryX=0;entryY=0.5;entryDx=0;entryDy=0;" edge="1" parent="WIyWlLk6GJQsqaUBKTNV-1" source="1yXC9ZcpIv-UJ7n63gi2-16" target="1yXC9ZcpIv-UJ7n63gi2-18">
          <mxGeometry relative="1" as="geometry" />
        </mxCell>
        <mxCell id="1yXC9ZcpIv-UJ7n63gi2-29" value="发送请求" style="edgeLabel;html=1;align=center;verticalAlign=middle;resizable=0;points=[];" vertex="1" connectable="0" parent="1yXC9ZcpIv-UJ7n63gi2-19">
          <mxGeometry x="-0.0696" relative="1" as="geometry">
            <mxPoint as="offset" />
          </mxGeometry>
        </mxCell>
        <mxCell id="1yXC9ZcpIv-UJ7n63gi2-16" value="网络层，将序列化好的字符流发送给rpc提供方" style="ellipse;whiteSpace=wrap;html=1;strokeWidth=2;fillWeight=2;hachureGap=8;fillColor=#f8cecc;fillStyle=dots;sketch=1;opacity=80;strokeColor=#b85450;" vertex="1" parent="WIyWlLk6GJQsqaUBKTNV-1">
          <mxGeometry x="50" y="1550" width="180" height="90" as="geometry" />
        </mxCell>
        <mxCell id="1yXC9ZcpIv-UJ7n63gi2-23" style="edgeStyle=orthogonalEdgeStyle;rounded=0;orthogonalLoop=1;jettySize=auto;html=1;entryX=0.5;entryY=1;entryDx=0;entryDy=0;fillColor=#fff2cc;strokeColor=#d6b656;" edge="1" parent="WIyWlLk6GJQsqaUBKTNV-1" source="1yXC9ZcpIv-UJ7n63gi2-18" target="1yXC9ZcpIv-UJ7n63gi2-20">
          <mxGeometry relative="1" as="geometry" />
        </mxCell>
        <mxCell id="1yXC9ZcpIv-UJ7n63gi2-18" value="网络层，接收调用方发送过来的序列化字符流" style="ellipse;whiteSpace=wrap;html=1;strokeWidth=2;fillWeight=2;hachureGap=8;fillColor=#f8cecc;fillStyle=dots;sketch=1;opacity=80;strokeColor=#b85450;" vertex="1" parent="WIyWlLk6GJQsqaUBKTNV-1">
          <mxGeometry x="414" y="1550" width="180" height="90" as="geometry" />
        </mxCell>
        <mxCell id="1yXC9ZcpIv-UJ7n63gi2-25" style="edgeStyle=orthogonalEdgeStyle;rounded=0;orthogonalLoop=1;jettySize=auto;html=1;entryX=0.5;entryY=1;entryDx=0;entryDy=0;fillColor=#fff2cc;strokeColor=#d6b656;" edge="1" parent="WIyWlLk6GJQsqaUBKTNV-1" source="1yXC9ZcpIv-UJ7n63gi2-20" target="1yXC9ZcpIv-UJ7n63gi2-22">
          <mxGeometry relative="1" as="geometry" />
        </mxCell>
        <mxCell id="1yXC9ZcpIv-UJ7n63gi2-20" value="反序列化层：将字符流按照协议组装为request，取出对应的方法，调用callmethod" style="rounded=1;whiteSpace=wrap;html=1;strokeWidth=2;fillWeight=4;hachureGap=8;hachureAngle=45;fillColor=#d5e8d4;sketch=1;opacity=80;strokeColor=#82b366;" vertex="1" parent="WIyWlLk6GJQsqaUBKTNV-1">
          <mxGeometry x="414" y="1430" width="180" height="80" as="geometry" />
        </mxCell>
        <mxCell id="1yXC9ZcpIv-UJ7n63gi2-22" value="callmethod调用到服务方本地方法，并将结果填入response，再调用执行完毕回调函数发送回调用方" style="rounded=1;whiteSpace=wrap;html=1;strokeWidth=2;fillWeight=4;hachureGap=8;hachureAngle=45;fillColor=#e1d5e7;sketch=1;strokeColor=#9673a6;" vertex="1" parent="WIyWlLk6GJQsqaUBKTNV-1">
          <mxGeometry x="422" y="1290" width="164" height="80" as="geometry" />
        </mxCell>
        <mxCell id="1yXC9ZcpIv-UJ7n63gi2-26" value="" style="endArrow=classic;html=1;rounded=0;entryX=0.978;entryY=0.444;entryDx=0;entryDy=0;entryPerimeter=0;dashed=1;dashPattern=8 8;" edge="1" parent="WIyWlLk6GJQsqaUBKTNV-1" target="1yXC9ZcpIv-UJ7n63gi2-18">
          <mxGeometry width="50" height="50" relative="1" as="geometry">
            <mxPoint x="586" y="1330" as="sourcePoint" />
            <mxPoint x="636" y="1280" as="targetPoint" />
            <Array as="points">
              <mxPoint x="630" y="1450" />
            </Array>
          </mxGeometry>
        </mxCell>
        <mxCell id="1yXC9ZcpIv-UJ7n63gi2-30" value="done回调函数绑定&lt;div&gt;为sendresponse&lt;/div&gt;" style="edgeLabel;html=1;align=center;verticalAlign=middle;resizable=0;points=[];" vertex="1" connectable="0" parent="1yXC9ZcpIv-UJ7n63gi2-26">
          <mxGeometry x="-0.404" y="-2" relative="1" as="geometry">
            <mxPoint as="offset" />
          </mxGeometry>
        </mxCell>
        <mxCell id="1yXC9ZcpIv-UJ7n63gi2-27" value="" style="endArrow=classic;html=1;rounded=0;entryX=1;entryY=0.667;entryDx=0;entryDy=0;entryPerimeter=0;exitX=0.013;exitY=0.667;exitDx=0;exitDy=0;exitPerimeter=0;dashed=1;dashPattern=1 1;" edge="1" parent="WIyWlLk6GJQsqaUBKTNV-1" source="1yXC9ZcpIv-UJ7n63gi2-18" target="1yXC9ZcpIv-UJ7n63gi2-16">
          <mxGeometry width="50" height="50" relative="1" as="geometry">
            <mxPoint x="370" y="1580" as="sourcePoint" />
            <mxPoint x="420" y="1530" as="targetPoint" />
          </mxGeometry>
        </mxCell>
        <mxCell id="1yXC9ZcpIv-UJ7n63gi2-28" value="发送结果" style="edgeLabel;html=1;align=center;verticalAlign=middle;resizable=0;points=[];" vertex="1" connectable="0" parent="1yXC9ZcpIv-UJ7n63gi2-27">
          <mxGeometry x="-0.0261" relative="1" as="geometry">
            <mxPoint as="offset" />
          </mxGeometry>
        </mxCell>
      </root>
    </mxGraphModel>
  </diagram>
</mxfile>
